<svg xmlns="http://www.w3.org/2000/svg" viewBox="0 0 200 150"><g fill="#e70418"><path d="M0 0h200v37.74c-66.67-.19-133.33-.16-200-.02V0zm55.9 56.08c1.93-.41 3.87-.82 5.82-1.22.03 1.58.09 3.15.18 4.73 2.68.01 2.28-2.86 2.8-4.72l.66.16c1.53.39 3.07.7 4.61 1.03-.75 1.55-1.5 3.1-2.24 4.66 1.36.04 2.73.09 4.09.14-.16-1.69-.16-3.4.23-5.07 1.72.75 3.49 1.39 5.26 2-1.06 1.13-2.1 2.27-3.14 3.42.06.41.17 1.24.22 1.65-5.62-1.3-11.42-2.31-17.17-1.11.46-.62.93-1.23 1.39-1.85-.91-1.27-1.81-2.55-2.71-3.82zm-6.74 1.25c1.62-.48 3.25-.95 4.88-1.43.56 1.94.92 3.92 1.32 5.9-1.14.43-2.29.85-3.43 1.28l-.67.25c.1-.5.29-1.51.39-2.01-.86-1.31-1.78-2.59-2.49-3.99zm7.25 9.81c4.71-2 9.93-.97 14.87-.7-2.69.26-5.38.46-8.06.79l-.08.85c-.07 3.13-.4 6.37.49 9.42 1.55 2.5 3.74 4.52 5.62 6.77 2.95.03 5.89.04 8.83.01.28 4.16.75 8.41-.21 12.51-.95 3.36-4.56 4.46-7.41 5.66-2.82-1.56-5.52-3.34-7.79-5.63.29-1.88.77-3.86.19-5.74-.87-1.61-1.61 1.19-1.29 1.87.15 1.39.45 2.76.92 4.09-.78.96-1.55 1.93-2.37 2.85 0-4.53 1.66-10.07-2.01-13.63-.69 4.89-.41 9.83-.28 14.75l-1.58.75c-.4-5.99 1.26-12.32-.94-18.06-1.23 5.89-.01 11.91-.64 17.82-.36.24-1.07.72-1.42.96v-1.13c.02-5.98.45-11.99-.4-17.94-3.9 4.43-1.34 10.87-2.14 16.19l-.52.99-.03-1.19c-.11-5.34 1.25-11.08-1.42-16.03-.82-2.47-2.9-4.28-5.63-3.54-1.56.14-3.12.33-4.68.51-.07 1.31-.12 2.62-.17 3.94-1.58-1.15-3.9-2.62-3.14-4.94.91-.89 1.99-1.7 3.25-1.99 1.52-.15 3.04-.23 4.56-.27 1.68-.04 3.37-.03 5.05-.04.07-3.03.07-6.07-.07-9.1 2.85.25 5.82.43 8.5-.8m-1.3 2.55c-.06.74-.2 2.23-.27 2.97-.65-.56-1.31-1.11-1.96-1.66-.49 1.74-.87 3.5-1.14 5.29l1.19-.16c.02.46.08 1.39.1 1.85-1.2 1.06-1.67 2.66-2.35 4.06 1.46.03 2.92.05 4.38.07l1.72.08c.62-.18 1.87-.53 2.49-.7.75-3.29-.06-6.83-.55-10.13-1.11-.75-2.39-1.16-3.61-1.67m7.23 10.6c-4.19 1.4-3.16 8.96 1.58 8.02 4.5-1.19 3.12-8.79-1.58-8.02m5.6 5.61c.75 1.18 1.51 2.36 2.29 3.52-1.66-.76-3.47-1.19-5.25-.54-.04 2.84-.77 5.91.5 8.59 2.55 3.4 8.51 3.33 10.44-.64 1.04-3.51.54-7.23.63-10.83-2.87-.12-5.74-.16-8.61-.1z"/><path d="M43.67 82.51c.39-.21 1.18-.63 1.57-.84.16 2.11.09 4.55-2.36 5.18-2.36 1.11-4.39 2.78-5.67 5.09-1.18-1.01-1.86-2.4-2.4-3.82 1.15-.58 2.3-1.13 3.44-1.73 2.01-.98 3.79-2.36 5.42-3.88zm37.28-.7c.38.19 1.16.55 1.55.74 1.59 1.55 3.35 2.95 5.45 3.73.99.41 1.98.81 2.98 1.18-.07 1.87-.31 3.99-2.45 4.51-.56-2.74-3.15-3.91-5.32-5.18-2.31-.65-2.15-3.03-2.21-4.98zM0 112.27c66.66.2 133.33.15 200 .02V150H0v-37.73z"/></g><g fill="#ffc501"><path d="M0 37.72c66.67-.14 133.33-.17 200 .02v74.55c-66.67.13-133.34.18-200-.02V37.72m62.51 9.18c-.17.84-.52 2.52-.69 3.36l-.23.87c-3.43-.19-6.82.73-10.12 1.57-2.04.57-4.72 1.87-4.43 4.39-.2 2.85 2.25 4.66 4.22 6.24l.67-.25c.69 1.34 1.38 2.67 2.08 4-2.06.08-4.11.29-6.1.86.14 3.03.14 6.07.07 9.1-1.68.01-3.37 0-5.05.04.03-1.72.08-3.44.14-5.15.4-2.24.94-4.52.59-6.79-1.14-1.3-3.06-2.21-4.64-1.09-3.08 1.35-1.01 5.29-.81 7.77.07 1.84.12 3.69.16 5.53-1.26.29-2.34 1.1-3.25 1.99-.76 2.32 1.56 3.79 3.14 4.94 0 .53-.01 1.58-.01 2.11-1.14.6-2.29 1.15-3.44 1.73.54 1.42 1.22 2.81 2.4 3.82a92.44 92.44 0 0 1 1.82 3.58c1.3-.12 2.59-.24 3.89-.35.05-2.77.06-5.55-.04-8.32 2.45-.63 2.52-3.07 2.36-5.18-.39.21-1.18.63-1.57.84l-.56-2.68c2.73-.74 4.81 1.07 5.63 3.54-.47 4.16-.68 8.35-.37 12.53-.1 1.44.74 2.6 1.79 3.5l.03 1.19.52-.99 2.54 1.75v1.13c.35-.24 1.06-.72 1.42-.96.63-5.91-.59-11.93.64-17.82 2.2 5.74.54 12.07.94 18.06l-.84.39c1.83.41 3.64.86 5.45 1.35 2-.27 4-.62 5.98-1.06 1.1.65 2.43.01 3.62.01 2.85-1.2 6.46-2.3 7.41-5.66.96-4.1.49-8.35.21-12.51 0-.86 0-2.57-.01-3.43 1.59-.32 3.18-.69 4.81-.74-.1.61-.29 1.83-.38 2.44-.39-.19-1.17-.55-1.55-.74.06 1.95-.1 4.33 2.21 4.98-.09 2.83-.07 5.66 0 8.48 1.57-.04 3.14-.06 4.72-.07l.6-3.23c2.14-.52 2.38-2.64 2.45-4.51-1-.37-1.99-.77-2.98-1.18-.01-.5-.04-1.49-.06-1.99 1.2-.87 2.78-1.48 3.41-2.92 1.63-2.27-1.82-3.66-3.56-4.08.08-1.79.17-3.59.3-5.38.5-2.34.64-4.74.57-7.14a16.42 16.42 0 0 0-6.21.02c-.09 2.38.05 4.77.57 7.11.05 1.64.08 3.28.1 4.92-1.66-.05-3.31.05-4.96.13.03-3-.03-6.01-.09-9.01-2.14-.12-4.27-.25-6.41-.25 2.26-4.09 8.85-6.88 7.22-12.26-3.31-3.78-9.07-2.97-13.44-4.7-.94-1.29-1.92-2.55-2.88-3.83M36.23 99.19c0 1.16-.01 2.31-.01 3.47 3.14.14 6.28.04 9.39-.39-.15-.78-.46-2.35-.62-3.14-2.92-.01-5.84-.01-8.76.06m44.81-.02c0 1.16.01 2.33.01 3.49 2.96.02 5.91.02 8.87 0 0-1.16.01-2.32.01-3.49-2.96-.06-5.93-.06-8.89 0z"/><path d="M56.05 53.07c1.71-.23 3.63-1.47 5.28-.55.1.59.29 1.75.39 2.34-1.95.4-3.89.81-5.82 1.22.03-.76.11-2.26.15-3.01zm7.55-.18c2.12-.83 4.34-.55 6.44.16-.01.75-.05 2.25-.07 3.01-1.54-.33-3.08-.64-4.61-1.03-.44-.53-1.32-1.6-1.76-2.14zm-14.18 1.66c1.24-.35 2.48-.7 3.73-1.04.22.6.66 1.79.89 2.39-1.63.48-3.26.95-4.88 1.43.07-.93.16-1.86.26-2.78zm22.4-.76c3.12-.54 5.54 1.32 6.32 4.28l-.83-.28c-1.77-.61-3.54-1.25-5.26-2-.06-.5-.17-1.5-.23-2zM61.28 83.15c.52.51.52.51 0 0zm.29 9.8c-.32-.68.42-3.48 1.29-1.87.58 1.88.1 3.86-.19 5.74l-.18.22c-.47-1.33-.77-2.7-.92-4.09z"/></g><g fill="#a06d09"><path d="M62.51 46.9c.96 1.28 1.94 2.54 2.88 3.83 4.37 1.73 10.13.92 13.44 4.7 1.63 5.38-4.96 8.17-7.22 12.26-2.82.04-5.65.21-8.47.39l.08-.85c2.68-.33 5.37-.53 8.06-.79-4.94-.27-10.16-1.3-14.87.7-2.68 1.23-5.65 1.05-8.5.8 1.99-.57 4.04-.78 6.1-.86-.7-1.33-1.39-2.66-2.08-4 1.14-.43 2.29-.85 3.43-1.28-.4-1.98-.76-3.96-1.32-5.9-.23-.6-.67-1.79-.89-2.39-1.25.34-2.49.69-3.73 1.04-.1.92-.19 1.85-.26 2.78.71 1.4 1.63 2.68 2.49 3.99-.1.5-.29 1.51-.39 2.01-1.97-1.58-4.42-3.39-4.22-6.24-.29-2.52 2.39-3.82 4.43-4.39 3.3-.84 6.69-1.76 10.12-1.57.75 1.53 3.93.57 2.17-.99l-1.94.12c.17-.84.52-2.52.69-3.36m-6.46 6.17c-.04.75-.12 2.25-.15 3.01.9 1.27 1.8 2.55 2.71 3.82-.46.62-.93 1.23-1.39 1.85 5.75-1.2 11.55-.19 17.17 1.11-.05-.41-.16-1.24-.22-1.65 1.04-1.15 2.08-2.29 3.14-3.42l.83.28c-.78-2.96-3.2-4.82-6.32-4.28.06.5.17 1.5.23 2-.39 1.67-.39 3.38-.23 5.07-1.36-.05-2.73-.1-4.09-.14.74-1.56 1.49-3.11 2.24-4.66.02-.76.06-2.26.07-3.01-2.1-.71-4.32-.99-6.44-.16.44.54 1.32 1.61 1.76 2.14l-.66-.16c-.52 1.86-.12 4.73-2.8 4.72-.09-1.58-.15-3.15-.18-4.73-.1-.59-.29-1.75-.39-2.34-1.65-.92-3.57.32-5.28.55zM39.02 64.05c1.58-1.12 3.5-.21 4.64 1.09.35 2.27-.19 4.55-.59 6.79-1.62-.04-3.24-.07-4.86-.11-.2-2.48-2.27-6.42.81-7.77zm43.38.74c2.05-.4 4.15-.41 6.21-.02.07 2.4-.07 4.8-.57 7.14-1.69-.01-3.38-.01-5.07-.01-.52-2.34-.66-4.73-.57-7.11zM71 70.56c-.45-2.14 3.68-1.85 2.75.15-.92.14-1.84.09-2.75-.15zm-15.89-.87c1.22.51 2.5.92 3.61 1.67.49 3.3 1.3 6.84.55 10.13-.62.17-1.87.52-2.49.7 1.31-2.59-3.12-2.73-1.72-.08-1.46-.02-2.92-.04-4.38-.07.68-1.4 1.15-3 2.35-4.06 2.65.95 2.42-3.04-.1-1.85l-1.19.16c.27-1.79.65-3.55 1.14-5.29.65.55 1.31 1.1 1.96 1.66.07-.74.21-2.23.27-2.97m1.95 6.65c-1.53 2.98 3.35.13 0 0zm7.14 6.03c3.34.16-1.55 2.97 0 0zm-15.46 1c2.67 4.95 1.31 10.69 1.42 16.03-1.05-.9-1.89-2.06-1.79-3.5-.31-4.18-.1-8.37.37-12.53z"/><path d="M50.71 99.6c.8-5.32-1.76-11.76 2.14-16.19.85 5.95.42 11.96.4 17.94l-2.54-1.75zM62.2 85.13c1.61-.53 2.17.03 1.66 1.67-1.62.52-2.17-.03-1.66-1.67zm-4.09 1.13c3.67 3.56 2.01 9.1 2.01 13.63-.57.28-1.72.84-2.29 1.12-.13-4.92-.41-9.86.28-14.75z"/></g><path fill="#3a6e7f" d="M61.82 50.26l1.94-.12c1.76 1.56-1.42 2.52-2.17.99l.23-.87zm8.33 41.05c3.35.17-1.56 2.96 0 0zm-10.03 9.09c2.38.16 4.67.8 6.72 2.04-1.98.44-3.98.79-5.98 1.06-.19-.77-.55-2.32-.74-3.1z"/><path fill="#bec9cc" d="M63.14 68.08c2.82-.18 5.65-.35 8.47-.39 2.14 0 4.27.13 6.41.25.06 3 .12 6.01.09 9.01-.02 1.3-.03 2.6-.04 3.9.01.86.01 2.57.01 3.43-2.94.03-5.88.02-8.83-.01-1.88-2.25-4.07-4.27-5.62-6.77-.89-3.05-.56-6.29-.49-9.42M71 70.56l-2.03-.24c.11.77.34 2.32.45 3.1-.97-1-1.94-1.99-2.91-2.99-.38.21-1.14.64-1.52.85.84 1.21 1.69 2.41 2.54 3.61-.58.14-1.73.4-2.3.53.22.36.67 1.09.89 1.46l4.06-.6c-.79 1.48-1.57 2.97-2.35 4.46 1.18-.06 2.37-.09 3.56-.11.82.76 1.57 1.59 2.47 2.27a745.3 745.3 0 0 0 2.13-12.54c-.56.09-1.68.26-2.24.35.93-2-3.2-2.29-2.75-.15zm-32.79 1.26c1.62.04 3.24.07 4.86.11-.06 1.71-.11 3.43-.14 5.15-1.52.04-3.04.12-4.56.27-.04-1.84-.09-3.69-.16-5.53zm44.76.08c1.69 0 3.38 0 5.07.01-.13 1.79-.22 3.59-.3 5.38a56.36 56.36 0 0 0-4.67-.47c-.02-1.64-.05-3.28-.1-4.92zm-44.54 8.44c1.56-.18 3.12-.37 4.68-.51l.56 2.68c-1.63 1.52-3.41 2.9-5.42 3.88 0-.53.01-1.58.01-2.11.05-1.32.1-2.63.17-3.94zm44.45-.23c1.55.01 3.11.09 4.67.17.13 1.33.25 2.67.34 4.01.02.5.05 1.49.06 1.99-2.1-.78-3.86-2.18-5.45-3.73.09-.61.28-1.83.38-2.44zM37.21 91.94c1.28-2.31 3.31-3.98 5.67-5.09.1 2.77.09 5.55.04 8.32-1.3.11-2.59.23-3.89.35a92.44 92.44 0 0 0-1.82-3.58zm45.95-5.15c2.17 1.27 4.76 2.44 5.32 5.18l-.6 3.23c-1.58.01-3.15.03-4.72.07-.07-2.82-.09-5.65 0-8.48zM62.49 97.04l.18-.22c2.27 2.29 4.97 4.07 7.79 5.63-1.19 0-2.52.64-3.62-.01-2.05-1.24-4.34-1.88-6.72-2.04.19.78.55 2.33.74 3.1-1.81-.49-3.62-.94-5.45-1.35l.84-.39 1.58-.75c.57-.28 1.72-.84 2.29-1.12.82-.92 1.59-1.89 2.37-2.85z"/><path fill="#bd707a" d="M64.99 71.28c.38-.21 1.14-.64 1.52-.85.97 1 1.94 1.99 2.91 2.99-.11-.78-.34-2.33-.45-3.1l2.03.24c.91.24 1.83.29 2.75.15.56-.09 1.68-.26 2.24-.35a745.3 745.3 0 0 1-2.13 12.54c-.9-.68-1.65-1.51-2.47-2.27-1.19.02-2.38.05-3.56.11.78-1.49 1.56-2.98 2.35-4.46l-4.06.6c-.22-.37-.67-1.1-.89-1.46.57-.13 1.72-.39 2.3-.53-.85-1.2-1.7-2.4-2.54-3.61z"/><path fill="#075fc9" d="M52.93 76.13c2.52-1.19 2.75 2.8.1 1.85-.02-.46-.08-1.39-.1-1.85zm4.13.21c3.35.13-1.53 2.98 0 0zm-2 5.77c-1.4-2.65 3.03-2.51 1.72.08l-1.72-.08zm7.28-1.82c4.7-.77 6.08 6.83 1.58 8.02-4.74.94-5.77-6.62-1.58-8.02m1.86 2.08c-1.55 2.97 3.34.16 0 0m-2.92.78c.52.51.52.51 0 0m.92 1.98c-.51 1.64.04 2.19 1.66 1.67.51-1.64-.05-2.2-1.66-1.67zM36.23 99.19c2.92-.07 5.84-.07 8.76-.06.16.79.47 2.36.62 3.14-3.11.43-6.25.53-9.39.39 0-1.16.01-2.31.01-3.47zm44.81-.02c2.96-.06 5.93-.06 8.89 0 0 1.17-.01 2.33-.01 3.49-2.96.02-5.91.02-8.87 0 0-1.16-.01-2.33-.01-3.49z"/><path fill="#f26a01" d="M78.11 76.95c1.65-.08 3.3-.18 4.96-.13 1.56.09 3.12.25 4.67.47 1.74.42 5.19 1.81 3.56 4.08-.63 1.44-2.21 2.05-3.41 2.92-.09-1.34-.21-2.68-.34-4.01-1.56-.08-3.12-.16-4.67-.17-1.63.05-3.22.42-4.81.74.01-1.3.02-2.6.04-3.9zM67.94 85.9c2.87-.06 5.74-.02 8.61.1-.09 3.6.41 7.32-.63 10.83-1.93 3.97-7.89 4.04-10.44.64-1.27-2.68-.54-5.75-.5-8.59 1.78-.65 3.59-.22 5.25.54-.78-1.16-1.54-2.34-2.29-3.52m2.21 5.41c-1.56 2.96 3.35.17 0 0z"/></svg>